<?xml version="1.0" encoding="iso-8859-1"?>
<!-- Generator: Adobe Illustrator 17.1.0, SVG Export Plug-In . SVG Version: 6.00 Build 0)  -->
<!DOCTYPE svg PUBLIC "-//W3C//DTD SVG 1.1//EN" "http://www.w3.org/Graphics/SVG/1.1/DTD/svg11.dtd">
<svg version="1.1" xmlns="http://www.w3.org/2000/svg" xmlns:xlink="http://www.w3.org/1999/xlink" x="0px" y="0px"
	 viewBox="0 0 1024 1024" style="enable-background:new 0 0 1024 1024;" xml:space="preserve">
<g id="twitter">
	<path id="twitter_1_" style="fill:#000;" d="M512,7.01C233.096,7.01,7.011,233.116,7.011,512
		c0,278.894,226.085,504.989,504.989,504.989c278.926,0,504.99-226.095,504.99-504.989C1016.99,233.116,790.926,7.01,512,7.01z
		 M740.947,394.592c0.187,5.04,0.311,10.183,0.311,15.294c0,156.053-118.787,336.047-336.058,336.047
		c-66.693,0-128.783-19.565-181.042-53.068c9.27,1.068,18.623,1.629,28.183,1.629c55.35,0,106.282-18.872,146.68-50.559
		c-51.7-0.933-95.291-35.067-110.347-82.008c7.258,1.39,14.62,2.136,22.252,2.136c10.763,0,21.173-1.441,31.127-4.158
		c-54.064-10.856-94.772-58.585-94.772-115.78c0-0.519,0-1.016,0-1.493c15.927,8.803,34.135,14.123,53.525,14.766
		c-31.709-21.184-52.571-57.351-52.571-98.308c0-21.671,5.827-41.953,16.01-59.383c58.253,71.442,145.311,118.465,243.442,123.37
		c-2.011-8.638-3.048-17.617-3.048-26.887c0-65.21,52.84-118.124,118.061-118.124c34.01,0,64.723,14.372,86.228,37.318
		c26.918-5.288,52.177-15.118,74.988-28.649c-8.793,27.561-27.54,50.684-51.907,65.325c23.89-2.831,46.661-9.167,67.834-18.592
		C784.041,357.17,763.945,377.95,740.947,394.592z"/>
</g>
<g id="Layer_1">
</g>
</svg>
